<mxfile host="Electron" agent="Mozilla/5.0 (Windows NT 10.0; Win64; x64) AppleWebKit/537.36 (KHTML, like Gecko) draw.io/24.7.17 Chrome/128.0.6613.36 Electron/32.0.1 Safari/537.36" version="24.7.17">
  <diagram name="Page-1" id="7AYTSORXuS7OAUIZUSHZ">
    <mxGraphModel dx="1332" dy="558" grid="1" gridSize="10" guides="1" tooltips="1" connect="1" arrows="1" fold="1" page="1" pageScale="1" pageWidth="1169" pageHeight="827" math="0" shadow="0">
      <root>
        <mxCell id="0" />
        <mxCell id="1" parent="0" />
        <mxCell id="Giix5Szjgbii0EV0NEsa-1" value="" style="rounded=0;whiteSpace=wrap;html=1;fillColor=none;dashed=1;" vertex="1" parent="1">
          <mxGeometry x="70" y="40" width="150" height="460" as="geometry" />
        </mxCell>
        <mxCell id="Giix5Szjgbii0EV0NEsa-2" value="&lt;font style=&quot;font-size: 18px;&quot;&gt;&lt;b&gt;Source&lt;/b&gt;&lt;/font&gt;" style="rounded=1;whiteSpace=wrap;html=1;" vertex="1" parent="1">
          <mxGeometry x="85" y="10" width="120" height="40" as="geometry" />
        </mxCell>
        <mxCell id="Giix5Szjgbii0EV0NEsa-49" style="edgeStyle=orthogonalEdgeStyle;rounded=0;orthogonalLoop=1;jettySize=auto;html=1;entryX=0;entryY=0.5;entryDx=0;entryDy=0;" edge="1" parent="1" source="Giix5Szjgbii0EV0NEsa-3" target="Giix5Szjgbii0EV0NEsa-7">
          <mxGeometry relative="1" as="geometry" />
        </mxCell>
        <mxCell id="Giix5Szjgbii0EV0NEsa-50" style="edgeStyle=orthogonalEdgeStyle;rounded=0;orthogonalLoop=1;jettySize=auto;html=1;entryX=0;entryY=0.5;entryDx=0;entryDy=0;" edge="1" parent="1" source="Giix5Szjgbii0EV0NEsa-3" target="Giix5Szjgbii0EV0NEsa-8">
          <mxGeometry relative="1" as="geometry" />
        </mxCell>
        <mxCell id="Giix5Szjgbii0EV0NEsa-52" style="edgeStyle=orthogonalEdgeStyle;rounded=0;orthogonalLoop=1;jettySize=auto;html=1;entryX=0;entryY=0.5;entryDx=0;entryDy=0;" edge="1" parent="1">
          <mxGeometry relative="1" as="geometry">
            <mxPoint x="174" y="165.56" as="sourcePoint" />
            <mxPoint x="323.40999999999985" y="165.56" as="targetPoint" />
            <Array as="points">
              <mxPoint x="200" y="165.56" />
              <mxPoint x="200" y="165.56" />
            </Array>
          </mxGeometry>
        </mxCell>
        <mxCell id="Giix5Szjgbii0EV0NEsa-3" value="" style="image;aspect=fixed;html=1;points=[];align=center;fontSize=12;image=img/lib/azure2/general/Folder_Blank.svg;" vertex="1" parent="1">
          <mxGeometry x="115" y="142.12" width="59" height="47.88" as="geometry" />
        </mxCell>
        <mxCell id="Giix5Szjgbii0EV0NEsa-4" value="" style="image;aspect=fixed;html=1;points=[];align=center;fontSize=12;image=img/lib/azure2/general/Folder_Blank.svg;" vertex="1" parent="1">
          <mxGeometry x="100" y="360" width="63.5" height="51.53" as="geometry" />
        </mxCell>
        <mxCell id="Giix5Szjgbii0EV0NEsa-5" value="" style="rounded=0;whiteSpace=wrap;html=1;fillColor=none;strokeColor=#d79b00;" vertex="1" parent="1">
          <mxGeometry x="293.40999999999997" y="50" width="220" height="430" as="geometry" />
        </mxCell>
        <mxCell id="Giix5Szjgbii0EV0NEsa-6" value="&lt;font style=&quot;font-size: 18px;&quot;&gt;&lt;b&gt;BRONZE LAYER&lt;/b&gt;&lt;/font&gt;" style="rounded=1;whiteSpace=wrap;html=1;fillColor=#ffe6cc;strokeColor=#d79b00;fontColor=#0000FF;" vertex="1" parent="1">
          <mxGeometry x="323.40999999999997" y="20" width="160" height="40" as="geometry" />
        </mxCell>
        <mxCell id="Giix5Szjgbii0EV0NEsa-69" style="edgeStyle=orthogonalEdgeStyle;rounded=0;orthogonalLoop=1;jettySize=auto;html=1;entryX=0;entryY=0.5;entryDx=0;entryDy=0;" edge="1" parent="1" source="Giix5Szjgbii0EV0NEsa-7" target="Giix5Szjgbii0EV0NEsa-63">
          <mxGeometry relative="1" as="geometry" />
        </mxCell>
        <mxCell id="Giix5Szjgbii0EV0NEsa-7" value="&lt;font style=&quot;font-size: 15px;&quot;&gt;crm_sales_details&lt;/font&gt;" style="rounded=1;whiteSpace=wrap;html=1;fillColor=#ffe6cc;strokeColor=#d79b00;fontColor=#0000FF;" vertex="1" parent="1">
          <mxGeometry x="323.40999999999997" y="90" width="160" height="40" as="geometry" />
        </mxCell>
        <mxCell id="Giix5Szjgbii0EV0NEsa-71" style="edgeStyle=orthogonalEdgeStyle;rounded=0;orthogonalLoop=1;jettySize=auto;html=1;entryX=0;entryY=0.5;entryDx=0;entryDy=0;" edge="1" parent="1" source="Giix5Szjgbii0EV0NEsa-8" target="Giix5Szjgbii0EV0NEsa-64">
          <mxGeometry relative="1" as="geometry" />
        </mxCell>
        <mxCell id="Giix5Szjgbii0EV0NEsa-8" value="&lt;font style=&quot;font-size: 15px;&quot;&gt;crm_prd_info&lt;/font&gt;" style="rounded=1;whiteSpace=wrap;html=1;fillColor=#ffe6cc;strokeColor=#d79b00;fontColor=#0000FF;" vertex="1" parent="1">
          <mxGeometry x="323.40999999999997" y="210" width="160" height="40" as="geometry" />
        </mxCell>
        <mxCell id="Giix5Szjgbii0EV0NEsa-70" style="edgeStyle=orthogonalEdgeStyle;rounded=0;orthogonalLoop=1;jettySize=auto;html=1;" edge="1" parent="1" source="Giix5Szjgbii0EV0NEsa-9" target="Giix5Szjgbii0EV0NEsa-65">
          <mxGeometry relative="1" as="geometry" />
        </mxCell>
        <mxCell id="Giix5Szjgbii0EV0NEsa-9" value="&lt;font style=&quot;font-size: 15px;&quot;&gt;crm_cust_info&lt;/font&gt;" style="rounded=1;whiteSpace=wrap;html=1;fillColor=#ffe6cc;strokeColor=#d79b00;fontColor=#0000FF;" vertex="1" parent="1">
          <mxGeometry x="323.40999999999997" y="150" width="160" height="40" as="geometry" />
        </mxCell>
        <mxCell id="Giix5Szjgbii0EV0NEsa-72" style="edgeStyle=orthogonalEdgeStyle;rounded=0;orthogonalLoop=1;jettySize=auto;html=1;" edge="1" parent="1" source="Giix5Szjgbii0EV0NEsa-11" target="Giix5Szjgbii0EV0NEsa-66">
          <mxGeometry relative="1" as="geometry" />
        </mxCell>
        <mxCell id="Giix5Szjgbii0EV0NEsa-11" value="&lt;font style=&quot;font-size: 15px;&quot;&gt;erp_cust_az12&lt;/font&gt;" style="rounded=1;whiteSpace=wrap;html=1;fillColor=#ffe6cc;strokeColor=#d79b00;fontColor=#0000FF;" vertex="1" parent="1">
          <mxGeometry x="323.40999999999997" y="310" width="160" height="40" as="geometry" />
        </mxCell>
        <mxCell id="Giix5Szjgbii0EV0NEsa-73" style="edgeStyle=orthogonalEdgeStyle;rounded=0;orthogonalLoop=1;jettySize=auto;html=1;" edge="1" parent="1" source="Giix5Szjgbii0EV0NEsa-12" target="Giix5Szjgbii0EV0NEsa-67">
          <mxGeometry relative="1" as="geometry" />
        </mxCell>
        <mxCell id="Giix5Szjgbii0EV0NEsa-12" value="&lt;font style=&quot;font-size: 15px;&quot;&gt;erp_loc_a101&lt;/font&gt;" style="rounded=1;whiteSpace=wrap;html=1;fillColor=#ffe6cc;strokeColor=#d79b00;fontColor=#0000FF;" vertex="1" parent="1">
          <mxGeometry x="323.40999999999997" y="365.76" width="160" height="40" as="geometry" />
        </mxCell>
        <mxCell id="Giix5Szjgbii0EV0NEsa-74" style="edgeStyle=orthogonalEdgeStyle;rounded=0;orthogonalLoop=1;jettySize=auto;html=1;" edge="1" parent="1" source="Giix5Szjgbii0EV0NEsa-13" target="Giix5Szjgbii0EV0NEsa-68">
          <mxGeometry relative="1" as="geometry" />
        </mxCell>
        <mxCell id="Giix5Szjgbii0EV0NEsa-13" value="&lt;font style=&quot;font-size: 15px;&quot;&gt;erp_px_cat_g1v2&lt;/font&gt;" style="rounded=1;whiteSpace=wrap;html=1;fillColor=#ffe6cc;strokeColor=#d79b00;fontColor=#0000FF;" vertex="1" parent="1">
          <mxGeometry x="323.40999999999997" y="420" width="160" height="40" as="geometry" />
        </mxCell>
        <mxCell id="Giix5Szjgbii0EV0NEsa-53" value="ERP" style="text;html=1;align=center;verticalAlign=middle;whiteSpace=wrap;rounded=0;" vertex="1" parent="1">
          <mxGeometry x="100" y="411.53" width="60" height="30" as="geometry" />
        </mxCell>
        <mxCell id="Giix5Szjgbii0EV0NEsa-54" value="CRM" style="text;html=1;align=center;verticalAlign=middle;whiteSpace=wrap;rounded=0;" vertex="1" parent="1">
          <mxGeometry x="115" y="190" width="60" height="30" as="geometry" />
        </mxCell>
        <mxCell id="Giix5Szjgbii0EV0NEsa-58" style="edgeStyle=orthogonalEdgeStyle;rounded=0;orthogonalLoop=1;jettySize=auto;html=1;entryX=0.041;entryY=0.644;entryDx=0;entryDy=0;entryPerimeter=0;" edge="1" parent="1">
          <mxGeometry relative="1" as="geometry">
            <mxPoint x="150" y="385.29999999999995" as="sourcePoint" />
            <mxPoint x="316.4699999999998" y="385.26" as="targetPoint" />
          </mxGeometry>
        </mxCell>
        <mxCell id="Giix5Szjgbii0EV0NEsa-59" style="edgeStyle=orthogonalEdgeStyle;rounded=0;orthogonalLoop=1;jettySize=auto;html=1;entryX=0.121;entryY=0.651;entryDx=0;entryDy=0;entryPerimeter=0;" edge="1" parent="1" source="Giix5Szjgbii0EV0NEsa-4" target="Giix5Szjgbii0EV0NEsa-5">
          <mxGeometry relative="1" as="geometry" />
        </mxCell>
        <mxCell id="Giix5Szjgbii0EV0NEsa-60" style="edgeStyle=orthogonalEdgeStyle;rounded=0;orthogonalLoop=1;jettySize=auto;html=1;entryX=0.121;entryY=0.907;entryDx=0;entryDy=0;entryPerimeter=0;" edge="1" parent="1" source="Giix5Szjgbii0EV0NEsa-4" target="Giix5Szjgbii0EV0NEsa-5">
          <mxGeometry relative="1" as="geometry" />
        </mxCell>
        <mxCell id="Giix5Szjgbii0EV0NEsa-61" value="" style="rounded=0;whiteSpace=wrap;html=1;fillColor=none;strokeColor=#666666;fontColor=#333333;" vertex="1" parent="1">
          <mxGeometry x="570" y="50" width="220" height="430" as="geometry" />
        </mxCell>
        <mxCell id="Giix5Szjgbii0EV0NEsa-62" value="&lt;font style=&quot;font-size: 18px;&quot;&gt;&lt;b&gt;SILVER LAYER&lt;/b&gt;&lt;/font&gt;" style="rounded=1;whiteSpace=wrap;html=1;fillColor=#f5f5f5;strokeColor=#666666;fontColor=#0000FF;" vertex="1" parent="1">
          <mxGeometry x="600" y="20" width="160" height="40" as="geometry" />
        </mxCell>
        <mxCell id="Giix5Szjgbii0EV0NEsa-63" value="&lt;font style=&quot;font-size: 15px;&quot;&gt;crm_sales_details&lt;/font&gt;" style="rounded=1;whiteSpace=wrap;html=1;fillColor=#f5f5f5;strokeColor=#666666;fontColor=#0000FF;" vertex="1" parent="1">
          <mxGeometry x="600" y="90" width="160" height="40" as="geometry" />
        </mxCell>
        <mxCell id="Giix5Szjgbii0EV0NEsa-64" value="&lt;font style=&quot;font-size: 15px;&quot;&gt;crm_prd_info&lt;/font&gt;" style="rounded=1;whiteSpace=wrap;html=1;fillColor=#f5f5f5;strokeColor=#666666;fontColor=#0000FF;" vertex="1" parent="1">
          <mxGeometry x="600" y="210" width="160" height="40" as="geometry" />
        </mxCell>
        <mxCell id="Giix5Szjgbii0EV0NEsa-65" value="&lt;font style=&quot;font-size: 15px;&quot;&gt;crm_cust_info&lt;/font&gt;" style="rounded=1;whiteSpace=wrap;html=1;fillColor=#f5f5f5;strokeColor=#666666;fontColor=#0000FF;" vertex="1" parent="1">
          <mxGeometry x="600" y="150" width="160" height="40" as="geometry" />
        </mxCell>
        <mxCell id="Giix5Szjgbii0EV0NEsa-66" value="&lt;font style=&quot;font-size: 15px;&quot;&gt;erp_cust_az12&lt;/font&gt;" style="rounded=1;whiteSpace=wrap;html=1;fillColor=#f5f5f5;strokeColor=#666666;fontColor=#0000FF;" vertex="1" parent="1">
          <mxGeometry x="600" y="310" width="160" height="40" as="geometry" />
        </mxCell>
        <mxCell id="Giix5Szjgbii0EV0NEsa-67" value="&lt;font style=&quot;font-size: 15px;&quot;&gt;erp_loc_a101&lt;/font&gt;" style="rounded=1;whiteSpace=wrap;html=1;fillColor=#f5f5f5;strokeColor=#666666;fontColor=#0000FF;" vertex="1" parent="1">
          <mxGeometry x="600" y="365.76" width="160" height="40" as="geometry" />
        </mxCell>
        <mxCell id="Giix5Szjgbii0EV0NEsa-68" value="&lt;font style=&quot;font-size: 15px;&quot;&gt;erp_px_cat_g1v2&lt;/font&gt;" style="rounded=1;whiteSpace=wrap;html=1;fillColor=#f5f5f5;strokeColor=#666666;fontColor=#0000FF;" vertex="1" parent="1">
          <mxGeometry x="600" y="420" width="160" height="40" as="geometry" />
        </mxCell>
        <mxCell id="Giix5Szjgbii0EV0NEsa-75" value="" style="rounded=0;whiteSpace=wrap;html=1;fillColor=none;strokeColor=#d6b656;" vertex="1" parent="1">
          <mxGeometry x="830" y="55" width="220" height="430" as="geometry" />
        </mxCell>
        <mxCell id="Giix5Szjgbii0EV0NEsa-76" value="&lt;font color=&quot;#0000ff&quot; style=&quot;font-size: 18px;&quot;&gt;&lt;b&gt;GOLD LAYER&lt;/b&gt;&lt;/font&gt;" style="rounded=1;whiteSpace=wrap;html=1;fillColor=#fff2cc;strokeColor=#d6b656;" vertex="1" parent="1">
          <mxGeometry x="860" y="20" width="160" height="40" as="geometry" />
        </mxCell>
        <mxCell id="Giix5Szjgbii0EV0NEsa-77" value="&lt;font color=&quot;#0000ff&quot;&gt;&lt;span style=&quot;font-size: 15px;&quot;&gt;fact_sales&lt;/span&gt;&lt;/font&gt;" style="rounded=1;whiteSpace=wrap;html=1;fillColor=#ffe6cc;strokeColor=#d79b00;" vertex="1" parent="1">
          <mxGeometry x="860" y="110" width="160" height="40" as="geometry" />
        </mxCell>
        <mxCell id="Giix5Szjgbii0EV0NEsa-78" value="&lt;font color=&quot;#0000ff&quot; style=&quot;font-size: 15px;&quot;&gt;dim_products&lt;/font&gt;" style="rounded=1;whiteSpace=wrap;html=1;fillColor=#ffe6cc;strokeColor=#d79b00;" vertex="1" parent="1">
          <mxGeometry x="860" y="300" width="160" height="40" as="geometry" />
        </mxCell>
        <mxCell id="Giix5Szjgbii0EV0NEsa-79" value="&lt;font color=&quot;#0000ff&quot; style=&quot;font-size: 15px;&quot;&gt;dim_customers&lt;/font&gt;" style="rounded=1;whiteSpace=wrap;html=1;fillColor=#ffe6cc;strokeColor=#d79b00;" vertex="1" parent="1">
          <mxGeometry x="860" y="210" width="160" height="40" as="geometry" />
        </mxCell>
        <mxCell id="Giix5Szjgbii0EV0NEsa-83" value="" style="endArrow=classic;html=1;rounded=0;exitX=1;exitY=0.75;exitDx=0;exitDy=0;" edge="1" parent="1" source="Giix5Szjgbii0EV0NEsa-63" target="Giix5Szjgbii0EV0NEsa-77">
          <mxGeometry width="50" height="50" relative="1" as="geometry">
            <mxPoint x="760" y="140" as="sourcePoint" />
            <mxPoint x="810" y="90" as="targetPoint" />
          </mxGeometry>
        </mxCell>
        <mxCell id="Giix5Szjgbii0EV0NEsa-84" value="" style="endArrow=classic;html=1;rounded=0;exitX=1;exitY=0.75;exitDx=0;exitDy=0;" edge="1" parent="1">
          <mxGeometry width="50" height="50" relative="1" as="geometry">
            <mxPoint x="750" y="170" as="sourcePoint" />
            <mxPoint x="860" y="230" as="targetPoint" />
          </mxGeometry>
        </mxCell>
        <mxCell id="Giix5Szjgbii0EV0NEsa-85" value="" style="endArrow=classic;html=1;rounded=0;exitX=1;exitY=0.75;exitDx=0;exitDy=0;entryX=0;entryY=0.5;entryDx=0;entryDy=0;jumpStyle=gap;" edge="1" parent="1" target="Giix5Szjgbii0EV0NEsa-78">
          <mxGeometry width="50" height="50" relative="1" as="geometry">
            <mxPoint x="760" y="244" as="sourcePoint" />
            <mxPoint x="870" y="300" as="targetPoint" />
          </mxGeometry>
        </mxCell>
        <mxCell id="Giix5Szjgbii0EV0NEsa-86" value="" style="endArrow=classic;html=1;rounded=0;exitX=1;exitY=0.75;exitDx=0;exitDy=0;entryX=0;entryY=0.75;entryDx=0;entryDy=0;jumpStyle=gap;" edge="1" parent="1" target="Giix5Szjgbii0EV0NEsa-79">
          <mxGeometry width="50" height="50" relative="1" as="geometry">
            <mxPoint x="760" y="335.53" as="sourcePoint" />
            <mxPoint x="860" y="411.53" as="targetPoint" />
          </mxGeometry>
        </mxCell>
        <mxCell id="Giix5Szjgbii0EV0NEsa-87" value="" style="endArrow=classic;html=1;rounded=0;exitX=1;exitY=0.5;exitDx=0;exitDy=0;jumpStyle=gap;" edge="1" parent="1" source="Giix5Szjgbii0EV0NEsa-67">
          <mxGeometry width="50" height="50" relative="1" as="geometry">
            <mxPoint x="770" y="345.53" as="sourcePoint" />
            <mxPoint x="860" y="240" as="targetPoint" />
          </mxGeometry>
        </mxCell>
        <mxCell id="Giix5Szjgbii0EV0NEsa-88" value="" style="endArrow=classic;html=1;rounded=0;exitX=1;exitY=0.5;exitDx=0;exitDy=0;entryX=0;entryY=0.5;entryDx=0;entryDy=0;jumpStyle=gap;" edge="1" parent="1" target="Giix5Szjgbii0EV0NEsa-78">
          <mxGeometry width="50" height="50" relative="1" as="geometry">
            <mxPoint x="760" y="441.53" as="sourcePoint" />
            <mxPoint x="860" y="295.53" as="targetPoint" />
          </mxGeometry>
        </mxCell>
      </root>
    </mxGraphModel>
  </diagram>
</mxfile>
